<svg id="Layer_1" data-name="Layer 1" xmlns="http://www.w3.org/2000/svg" viewBox="0 0 512 512"><defs><style>.cls-1{fill:none;}.cls-2{fill:#898989;}</style></defs><title>autofocus-other</title><rect class="cls-1" x="5.69" y="5.69" width="500.62" height="500.62"/><rect class="cls-1" x="5.69" y="5.69" width="500.62" height="500.62"/><path class="cls-2" d="M5.69,102.4A5.69,5.69,0,0,1,0,96.71v-91A5.69,5.69,0,0,1,5.69,0h91a5.69,5.69,0,0,1,0,11.38H11.38V96.71A5.69,5.69,0,0,1,5.69,102.4Z"/><path class="cls-2" d="M301.51,11.38h-91a5.69,5.69,0,1,1,0-11.38h91a5.69,5.69,0,1,1,0,11.38Z"/><path class="cls-2" d="M506.31,79.64A5.69,5.69,0,0,1,500.62,74V11.38H415.29a5.69,5.69,0,1,1,0-11.38h91A5.69,5.69,0,0,1,512,5.69V74A5.69,5.69,0,0,1,506.31,79.64Z"/><path class="cls-2" d="M96.71,512h-91A5.69,5.69,0,0,1,0,506.31v-91a5.69,5.69,0,1,1,11.38,0v85.33H96.71a5.69,5.69,0,0,1,0,11.38Z"/><path class="cls-2" d="M301.51,512h-91a5.69,5.69,0,0,1,0-11.38h91a5.69,5.69,0,0,1,0,11.38Z"/><path class="cls-2" d="M506.31,512h-91a5.69,5.69,0,0,1,0-11.38h85.33V415.29a5.69,5.69,0,0,1,11.38,0v91A5.69,5.69,0,0,1,506.31,512Z"/><path class="cls-2" d="M506.31,307.2a5.69,5.69,0,0,1-5.69-5.69v-91a5.69,5.69,0,0,1,11.38,0v91A5.69,5.69,0,0,1,506.31,307.2Z"/><path class="cls-2" d="M5.69,307.2A5.69,5.69,0,0,1,0,301.51v-91a5.69,5.69,0,1,1,11.38,0v91A5.69,5.69,0,0,1,5.69,307.2Z"/><path class="cls-2" d="M256,330a74,74,0,1,1,74-74A74,74,0,0,1,256,330Zm0-136.53A62.58,62.58,0,1,0,318.58,256,62.65,62.65,0,0,0,256,193.42Z"/><path class="cls-2" d="M256,193.42a5.69,5.69,0,0,1-5.69-5.69V142.22a5.69,5.69,0,1,1,11.38,0v45.51A5.69,5.69,0,0,1,256,193.42Z"/><path class="cls-2" d="M256,375.47a5.69,5.69,0,0,1-5.69-5.69V324.27a5.69,5.69,0,0,1,11.38,0v45.51A5.69,5.69,0,0,1,256,375.47Z"/><path class="cls-2" d="M369.78,261.69H324.27a5.69,5.69,0,0,1,0-11.38h45.51a5.69,5.69,0,1,1,0,11.38Z"/><path class="cls-2" d="M187.73,261.69H142.22a5.69,5.69,0,1,1,0-11.38h45.51a5.69,5.69,0,1,1,0,11.38Z"/></svg>